<?xml version="1.0" encoding="utf-8"?><svg viewBox="0 0 48 48" xmlns="http://www.w3.org/2000/svg" xmlns:xlink="http://www.w3.org/1999/xlink"><style>:root>svg{display:none}:root>svg:target{display:block}</style><svg viewBox="0 0 14 20" id="ic_address" xmlns="http://www.w3.org/2000/svg"><path d="M6.515 19.74a.583.583 0 00.97 0c1.38-2.08 3.414-4.65 4.831-7.262C13.45 10.388 14 8.608 14 7.03 14 3.154 10.86 0 7 0S0 3.154 0 7.031c0 1.576.55 3.358 1.684 5.447 1.416 2.61 3.453 5.185 4.83 7.261zM7 1.171c3.216 0 5.833 2.628 5.833 5.86 0 1.374-.504 2.973-1.541 4.885C10.07 14.17 8.327 16.453 7 18.374c-1.327-1.92-3.07-4.205-4.292-6.457-1.037-1.912-1.541-3.51-1.541-4.886 0-3.23 2.617-5.86 5.833-5.86z"/><path d="M7 10.547c1.93 0 3.5-1.577 3.5-3.516 0-1.938-1.57-3.515-3.5-3.515S3.5 5.093 3.5 7.03c0 1.939 1.57 3.516 3.5 3.516zm0-5.86a2.341 2.341 0 012.333 2.344A2.341 2.341 0 017 9.375a2.341 2.341 0 01-2.333-2.344A2.341 2.341 0 017 4.688z"/></svg><svg viewBox="0 0 12 12" id="ic_arrow-down" xmlns="http://www.w3.org/2000/svg"><g clip-path="url(#ba)"><path d="M12 3.263a.57.57 0 01-.16.397L6.386 9.285a.534.534 0 01-.772 0L.16 3.66a.575.575 0 010-.795.534.534 0 01.771 0L6 8.092l5.069-5.227a.534.534 0 01.771 0 .57.57 0 01.16.398z"/></g><defs><clipPath id="ba"><path d="M0 0h12v12H0z"/></clipPath></defs></svg><svg viewBox="0 0 24 22" id="ic_cart" xmlns="http://www.w3.org/2000/svg"><path d="M7.781 14.5h12.704a.7.7 0 00.675-.508l2.813-9.8a.697.697 0 00-.676-.892H6.158l-.503-2.252A.702.702 0 004.97.5H.703a.701.701 0 100 1.4h3.701l2.54 11.375A2.101 2.101 0 005.672 15.2c0 1.158.946 2.1 2.11 2.1h12.703a.701.701 0 100-1.4H7.78a.702.702 0 01-.703-.7c0-.386.316-.7.703-.7z"/><path d="M7.078 19.4c0 1.158.946 2.1 2.11 2.1 1.163 0 2.11-.942 2.11-2.1 0-1.158-.947-2.1-2.11-2.1-1.164 0-2.11.942-2.11 2.1zm9.891 0c0 1.158.946 2.1 2.11 2.1a2.107 2.107 0 002.109-2.1c0-1.158-.947-2.1-2.11-2.1-1.163 0-2.11.942-2.11 2.1z"/></svg><svg viewBox="0 0 41 35" id="ic_cheese" xmlns="http://www.w3.org/2000/svg"><path d="M17.695 24.78c-1.977 0-3.586 1.443-3.586 3.217s1.609 3.217 3.586 3.217c1.977 0 3.586-1.443 3.586-3.217s-1.609-3.218-3.586-3.218zm0 5.032c-1.116 0-2.023-.814-2.023-1.815s.907-1.816 2.023-1.816 2.023.815 2.023 1.816c0 1-.907 1.815-2.023 1.815zm14.145-7.464c-1.503 0-2.726 1.097-2.726 2.446 0 1.35 1.223 2.447 2.727 2.447 1.503 0 2.726-1.098 2.726-2.447s-1.223-2.446-2.726-2.446zm0 3.49c-.641 0-1.163-.468-1.163-1.044 0-.576.522-1.044 1.164-1.044.641 0 1.163.469 1.163 1.044 0 .576-.522 1.045-1.163 1.045zM9.055 18.712c-1.411 0-2.559 1.03-2.559 2.296 0 1.266 1.148 2.297 2.559 2.297 1.41 0 2.559-1.03 2.559-2.297 0-1.266-1.148-2.296-2.559-2.296zm0 3.19c-.55 0-.996-.4-.996-.894 0-.493.446-.894.996-.894s.996.401.996.894-.447.895-.996.895zM30.46 8.781c1.43 0 2.592-1.043 2.592-2.325 0-1.282-1.163-2.325-2.592-2.325-1.428 0-2.59 1.043-2.59 2.325 0 1.282 1.162 2.325 2.59 2.325zm0-3.248c.568 0 1.03.414 1.03.923 0 .51-.462.923-1.03.923-.567 0-1.028-.414-1.028-.923 0-.509.461-.923 1.028-.923z"/><path d="M40.456 14.9l-.082-.523c-.752-4.79-3.005-9.255-6.516-12.912-1.473-1.534-3.956-1.913-5.906-.9L17.34 6.078c-.278.145-.43.427-.38.712.097.578-.11 1.146-.57 1.559-.729.654-1.886.713-2.69.136a.854.854 0 00-.88-.059L2.762 13.652a4.337 4.337 0 00-1.597 1.404.679.679 0 00-.236.394A3.713 3.713 0 00.5 17.17v8.31c0 .388.35.701.781.701 1.116 0 2.023.815 2.023 1.816 0 1-.907 1.815-2.023 1.815-.431 0-.781.314-.781.701v.421C.5 33.176 2.533 35 5.031 35h22.626c.431 0 .78-.314.78-.701 0-1.001.909-1.816 2.024-1.816s2.023.815 2.023 1.816c0 .387.35.701.781.701h2.704c2.498 0 4.531-1.824 4.531-4.066V15.466c0-.189-.015-.38-.044-.567zm-4.487 18.698H33.96c-.358-1.438-1.791-2.517-3.5-2.517s-3.142 1.079-3.5 2.517H5.03c-1.561 0-2.845-1.087-2.96-2.462 1.598-.324 2.796-1.608 2.796-3.14s-1.202-2.819-2.804-3.14v-7.685c0-.313.062-.617.178-.903h5.316c.432 0 .782-.314.782-.701 0-.387-.35-.701-.782-.701H3.543l9.637-5.007c1.383.712 3.154.522 4.314-.519.672-.603 1.046-1.424 1.05-2.267l10.191-5.295c1.3-.675 2.956-.422 3.94.602 3.314 3.453 5.442 7.669 6.151 12.192l.047.294H21.624c.323-.816 1.19-1.402 2.21-1.402.431 0 .78-.314.78-.702 0-.387-.349-.7-.78-.7-1.887 0-3.465 1.206-3.828 2.804h-5.678c-.431 0-.781.314-.781.7 0 .388.35.702.781.702h5.678c.363 1.598 1.94 2.804 3.827 2.804s3.465-1.206 3.828-2.804h11.276v14.666c0 1.469-1.331 2.664-2.968 2.664zm-9.926-17.33c-.323.816-1.191 1.402-2.21 1.402-1.018 0-1.886-.586-2.209-1.402h4.419z"/><path d="M11.047 14.866a.836.836 0 00-.553.205.672.672 0 00-.228.496c0 .184.083.365.229.495.145.13.347.206.552.206a.835.835 0 00.552-.206.672.672 0 00.23-.495.672.672 0 00-.23-.496.835.835 0 00-.552-.205z"/></svg><svg viewBox="0 0 48 48" id="ic_close" xmlns="http://www.w3.org/2000/svg"><path d="M38.982 6.97a2 2 0 00-1.396.616L24 21.172 10.414 7.586A2 2 0 008.98 6.98a2 2 0 00-1.393 3.434L21.172 24 7.586 37.586a2 2 0 102.828 2.828L24 26.828l13.586 13.586a2 2 0 102.828-2.828L26.828 24l13.586-13.586a2 2 0 00-1.432-3.443z"/></svg><svg viewBox="0 0 33 32" id="ic_combo" xmlns="http://www.w3.org/2000/svg"><g clip-path="url(#fa)"><mask id="fa" maskUnits="userSpaceOnUse" x="0" y="0" width="17" height="32"><path d="M.5 0h16.4v32H.5z"/></mask><g mask="url(#fa)"><path d="M13.84 28.845a2.9 2.9 0 01-2.636-1.696 1.695 1.695 0 00-1.702-.984 2.884 2.884 0 01-2.323-.835 2.887 2.887 0 01-.834-2.325 1.687 1.687 0 00-.019-.432l-3.365 1.945c2.735 4.34 7.492 7.28 12.939 7.482v-3.894a1.68 1.68 0 00-.383.2 2.881 2.881 0 01-1.677.539zm-.441-24.43a1.69 1.69 0 00-1.103.934 2.897 2.897 0 01-2.91 1.682 1.692 1.692 0 00-1.847 1.848c.04.405-.015.8-.135 1.17L15.9 14.96V5.14a2.879 2.879 0 01-1.08-.468 1.687 1.687 0 00-1.421-.257zm.168 6.5a1.893 1.893 0 01-2.587-.694 1.896 1.896 0 01.693-2.589 1.893 1.893 0 012.587.694 1.896 1.896 0 01-.693 2.59zM5.362 21.3a2.884 2.884 0 01-1.595-1.884 2.887 2.887 0 01.44-2.432 1.698 1.698 0 000-1.968 2.888 2.888 0 01-.44-2.431A2.885 2.885 0 015.362 10.7a1.67 1.67 0 00.364-.232L2.358 8.52A15.924 15.924 0 00.5 16.001c0 2.7.674 5.244 1.858 7.478l3.368-1.946c-.11-.09-.23-.171-.364-.233z"/><path d="M4.926 19.104c.131.49.471.893.933 1.103.37.169.685.413.945.703L15.3 16l-8.496-4.91c-.26.29-.575.534-.945.702a1.688 1.688 0 00-.933 1.104 1.689 1.689 0 00.257 1.422 2.897 2.897 0 010 3.364 1.69 1.69 0 00-.257 1.422zm3.814-5a1.894 1.894 0 11-.001 3.79 1.894 1.894 0 01.001-3.79zM2.96 7.482l3.366 1.945a1.68 1.68 0 00.019-.432 2.887 2.887 0 01.834-2.325 2.882 2.882 0 012.323-.835 1.694 1.694 0 001.702-.984 2.885 2.885 0 011.884-1.596 2.88 2.88 0 012.429.44c.12.085.25.149.383.2V0C10.453.202 5.696 3.141 2.96 7.482zM7.54 23.12a1.695 1.695 0 001.847 1.85 2.888 2.888 0 012.91 1.68c.21.463.611.804 1.102.935.49.131 1.008.038 1.42-.257.331-.236.7-.387 1.081-.468v-9.82l-8.496 4.91c.12.37.174.766.135 1.17zm3.44-1.341a1.893 1.893 0 012.587-.694 1.896 1.896 0 01.693 2.589 1.893 1.893 0 01-2.587.694 1.896 1.896 0 01-.693-2.59z"/></g><path d="M30.417 26.261a5.26 5.26 0 01-.21-4.4c.628-1.558.96-3.355.96-5.194 0-3.145-.878-5.076-1.727-6.943-.76-1.67-1.472-3.267-1.584-5.729a.664.664 0 00-.023-1.328v-2A.666.666 0 0027.167 0h-5.334a.666.666 0 00-.666.667v2a.664.664 0 00-.023 1.329c-.112 2.46-.825 4.058-1.584 5.728-.849 1.867-1.727 3.798-1.727 6.943 0 1.839.332 3.636.96 5.194a5.263 5.263 0 01-.21 4.401 6.678 6.678 0 00-.75 3.071c0 .75.13 1.497.387 2.222a.666.666 0 00.628.445h11.303a.666.666 0 00.628-.444 6.613 6.613 0 00-.362-5.295c0 .001 0 .001 0 0zM26.514 4c.02.475.066.911.123 1.333h-4.274c.058-.422.104-.858.124-1.333h4.027zm2.451 8c.164.424.312.865.44 1.333h-9.81c.128-.468.276-.909.44-1.333h8.93zm.442 8c-.12.46-.257.909-.426 1.333H20.02c-.17-.424-.307-.873-.427-1.333h9.814z"/></g><defs><clipPath id="fa"><path transform="translate(.5)" d="M0 0h32v32H0z"/></clipPath></defs></svg><svg viewBox="0 0 40 40" id="ic_cucumber" xmlns="http://www.w3.org/2000/svg"><path d="M39.452 13.781c.43-1.685.337-3.396-.266-4.832a5.528 5.528 0 00-1.48-2.074l.315-1.594c.14-.702.476-1.35.975-1.875a1.335 1.335 0 00.015-1.842L37.88.339a1.063 1.063 0 00-1.705.205l-.495.913a15.716 15.716 0 00-.989 2.22 4.519 4.519 0 00-1.08-1.432c.2-.463.373-.972.513-1.518a.585.585 0 00-.44-.71.603.603 0 00-.728.428 8.866 8.866 0 01-.355 1.096c-1.324-.722-2.94-.94-3.932-.161-.68.532-1.141 1.636-.739 2.56.4.916 1.488 1.315 2.333 1.295 1.034-.022 2.013-.72 2.77-1.899.51.529.877 1.393.92 2.31a7.35 7.35 0 00-3.05.747c-1.568.758-2.92 2.028-3.807 3.578a37.52 37.52 0 01-1.869 2.975 1.876 1.876 0 00-.763-.023 1.772 1.772 0 00-1.453 1.447c-.067.414.014.828.23 1.18a38.237 38.237 0 01-4.677 4.71.575.575 0 00-.06.826c.218.244.598.27.848.058a39.407 39.407 0 004.924-4.976.957.957 0 00.026-1.177.57.57 0 01-.103-.438.591.591 0 01.479-.477.622.622 0 01.31.021c.424.143.899-.013 1.155-.38a38.701 38.701 0 002.006-3.179c1.372-2.398 3.906-3.842 6.266-3.71-.212.16-.424.32-.638.474a10.89 10.89 0 00-2.206 2.142 1.856 1.856 0 00-.318-.027c-.996 0-1.806.788-1.806 1.758 0 .412.148.792.393 1.092a41.163 41.163 0 01-6.791 8.643 1.837 1.837 0 00-.663-.123c-.996 0-1.806.788-1.806 1.758 0 .18.029.353.08.517a42.238 42.238 0 01-14.55 7.906 11.403 11.403 0 00-4.28 2.442c-.193.177-.39.353-.589.528.275-2.285 2.175-4.465 4.836-5.364a40.48 40.48 0 002.023-.731.974.974 0 00.614-1.061.567.567 0 01-.006-.138.606.606 0 011.069-.324 1.02 1.02 0 001.222.255 40.143 40.143 0 006.142-3.69.576.576 0 00.12-.82.612.612 0 00-.842-.118 38.923 38.923 0 01-5.82 3.512 1.828 1.828 0 00-1.304-.53c-.936.006-1.72.723-1.788 1.632a1.705 1.705 0 000 .25 39.49 39.49 0 01-1.82.655c-1.72.58-3.237 1.656-4.276 3.029C.308 31.952-.173 33.658.056 35.297l.002.015v.003l.002.004c.191 1.353 1.003 2.571 2.29 3.43C3.582 39.573 5.113 40 6.74 40c.735 0 1.489-.087 2.243-.264a.585.585 0 00.444-.707.603.603 0 00-.726-.432c-2.063.484-4.184.18-5.671-.814-.655-.438-1.15-.988-1.457-1.602.309.108.618.214.928.315a8.394 8.394 0 002.623.409c.93 0 1.879-.144 2.798-.432.407-.127.815-.26 1.22-.398.33.375.822.614 1.369.614.995 0 1.805-.789 1.805-1.758 0-.02 0-.042-.002-.062 2.138-.9 4.22-1.956 6.203-3.148.312.247.71.397 1.142.397.995 0 1.805-.79 1.805-1.759a1.71 1.71 0 00-.077-.508 47.597 47.597 0 009.512-8.837c.175.055.362.085.555.085.996 0 1.806-.789 1.806-1.758 0-.374-.121-.72-.326-1.006a46.773 46.773 0 002.398-3.78.578.578 0 00-.235-.797.61.61 0 00-.817.229 45.618 45.618 0 01-2.325 3.665 1.843 1.843 0 00-.5-.07c-.996 0-1.806.79-1.806 1.759 0 .354.109.684.295.96a46.408 46.408 0 01-9.27 8.606 1.83 1.83 0 00-1.015-.305c-.996 0-1.806.788-1.806 1.758 0 .123.014.244.039.36a47.504 47.504 0 01-6.02 3.059 1.822 1.822 0 00-1.361-.606c-.995 0-1.805.789-1.805 1.758v.049c-.382.13-.767.257-1.151.377-1.548.485-3.25.495-4.67.028-.36-.117-.72-.24-1.077-.367.287-.249.57-.501.846-.755a10.18 10.18 0 013.825-2.179 43.442 43.442 0 0014.903-8.08c.287.19.633.3 1.005.3.995 0 1.805-.79 1.805-1.759 0-.313-.085-.608-.233-.863a42.333 42.333 0 006.902-8.791c.127.027.258.042.393.042.995 0 1.805-.789 1.805-1.758 0-.435-.163-.834-.433-1.141a9.71 9.71 0 011.871-1.792c.306-.222.61-.45.912-.682.067.366.128.732.185 1.098.146.934.072 1.951-.212 2.941a.584.584 0 00.416.722.6.6 0 00.742-.406c.33-1.148.415-2.336.243-3.432a43.085 43.085 0 00-.157-.948c1.599 1.128 2.308 3.563 1.631 6.066a.962.962 0 00.325.993.576.576 0 01.213.498.597.597 0 01-.67.533 1.016 1.016 0 00-1.001.487 49.28 49.28 0 01-9.25 11.476.953.953 0 00-.137 1.267.57.57 0 01.103.403.599.599 0 01-.553.514.609.609 0 01-.44-.143 1.026 1.026 0 00-1.31-.022 50.698 50.698 0 01-7.94 5.28.962.962 0 00-.486 1.105.576.576 0 01.013.24.598.598 0 01-.499.49.612.612 0 01-.56-.209 1.023 1.023 0 00-1.213-.257 51.471 51.471 0 01-3.597 1.498.581.581 0 00-.347.756.602.602 0 00.777.338 52.663 52.663 0 003.556-1.475c.405.404.977.592 1.562.508.777-.113 1.399-.722 1.512-1.48a1.717 1.717 0 00-.007-.557 51.91 51.91 0 007.873-5.235c.343.245.761.362 1.192.332.866-.06 1.565-.713 1.662-1.55a1.726 1.726 0 00-.217-1.06A50.454 50.454 0 0038.107 16.8c.177.009.355-.008.53-.052a1.77 1.77 0 001.358-1.564 1.74 1.74 0 00-.543-1.402zm-9.215-9.717c-.377.008-1.02-.17-1.198-.581-.165-.38.067-.941.385-1.19.211-.166.508-.242.848-.242.548 0 1.21.198 1.81.542-.546.898-1.213 1.457-1.845 1.47zm1.217 14.69c.332 0 .602.264.602.587 0 .323-.27.586-.602.586a.595.595 0 01-.602-.586c0-.323.27-.586.602-.586zm-11.796 11.02c.332 0 .603.262.603.585 0 .324-.27.587-.602.587a.595.595 0 01-.602-.587c0-.323.27-.586.602-.586zm-9.147 4.57c.332 0 .602.264.602.587 0 .323-.27.586-.602.586a.595.595 0 01-.602-.586c0-.323.27-.586.602-.586zm11.876-11.213a.595.595 0 01-.602-.586c0-.323.27-.586.602-.586.332 0 .602.263.602.586 0 .323-.27.586-.602.586zm8.867-11.37a.595.595 0 01-.602-.586c0-.324.27-.587.602-.587.332 0 .602.263.602.587 0 .323-.27.586-.602.586zm5.49-9.757l.392-.72.98 1.062a.191.191 0 01-.003.264 4.943 4.943 0 00-1.273 2.45l-.22 1.112a5.578 5.578 0 00-1.308-.413l.235-.824c.29-1.014.693-2 1.198-2.93z"/></svg><svg viewBox="0 0 33 32" id="ic_desserts" xmlns="http://www.w3.org/2000/svg"><g clip-path="url(#ha)"><path d="M18.17 15.792a2.36 2.36 0 00-1.67-.696 2.36 2.36 0 00-1.67.696s-1.31 1.336-1.684 1.637L14.291 32h4.424l1.147-14.561c-.216-.12-1.694-1.647-1.694-1.647zm-8.295-.15a2.364 2.364 0 00-1.583-.692 2.358 2.358 0 00-1.628.575L4.37 17.49l2.208 12.46a2.5 2.5 0 00.836 1.465c.439.373.992.577 1.563.576h4.005l-1.14-14.478c-.26-.1-1.967-1.87-1.967-1.87zM15.97 2.68c.17.069.35.106.531.11a1.31 1.31 0 001.144-.628 1.392 1.392 0 00.088-1.38 1.394 1.394 0 00-.39-.489 1.361 1.361 0 00-1.18-.25 1.36 1.36 0 00-.55.288 1.422 1.422 0 00-.322 1.73c.154.277.393.494.68.62z"/><path d="M24.409 8.512l-.374-.09-.092-.381c-.586-2.338-2.674-4.239-5.377-4.886a2.51 2.51 0 01-.92.738 2.47 2.47 0 01-1.148.233c-1.098 0-2.006-.918-2.058-.981-2.7.647-4.788 2.528-5.371 4.879l-.089.397-.376.1a6.39 6.39 0 00-3.803 2.85 6.607 6.607 0 00-.841 4.732l1.858-1.593a3.654 3.654 0 012.52-.89c.92.034 1.793.415 2.451 1.07l1.639 1.617 1.5-1.48a3.547 3.547 0 011.18-.797 3.495 3.495 0 011.39-.265 3.693 3.693 0 012.585 1.085l1.469 1.463 1.674-1.64a3.663 3.663 0 012.446-1.055 3.656 3.656 0 012.509.888l1.855 1.597a6.597 6.597 0 00-.828-4.736 6.381 6.381 0 00-3.8-2.855z"/><path d="M23.134 15.622s-1.763 1.783-1.966 1.863L20.024 31.99h4.011c.571 0 1.124-.204 1.563-.577.438-.373.734-.89.836-1.464l1.098-6.192 1.09-6.269-2.293-1.973a2.362 2.362 0 00-1.618-.572c-.59.02-1.152.262-1.577.679z"/></g><defs><clipPath id="ha"><path transform="translate(.5)" d="M0 0h32v32H0z"/></clipPath></defs></svg><svg viewBox="0 0 33 32" id="ic_drink" xmlns="http://www.w3.org/2000/svg"><path d="M17.605 6.513V3.681L23.6 2.257a1 1 0 00.733-1.237l-.025-.092a1 1 0 00-1.192-.71l-6.947 1.62a1 1 0 00-.773.973v3.702H8.167a1 1 0 00-1 1v3.602h18.666V7.513a1 1 0 00-1-1h-7.228zM7.253 12.885l2.542 17.274C9.942 31.221 10.9 32 11.969 32h8.952c1.105 0 2.026-.778 2.174-1.84l2.542-17.274H7.253z"/></svg><svg viewBox="0 0 20 20" id="ic_fb" xmlns="http://www.w3.org/2000/svg"><path fill-rule="evenodd" clip-rule="evenodd" d="M0 10.056C0 15.028 3.611 19.162 8.333 20l.056-.045-.056-.01v-7.096h-2.5v-2.793h2.5V7.821c0-2.514 1.611-3.91 3.89-3.91.721 0 1.5.111 2.221.223v2.57h-1.277c-1.223 0-1.5.615-1.5 1.397v1.955h2.666l-.444 2.793h-2.222v7.095a5.476 5.476 0 01-.056.011l.056.045C16.389 19.162 20 15.028 20 10.056 20 4.526 15.5 0 10 0S0 4.525 0 10.056z"/></svg><svg viewBox="0 0 16 16" id="ic_filter" xmlns="http://www.w3.org/2000/svg"><path d="M6.333 16A.334.334 0 016 15.667V8.932a1 1 0 00-.336-.747L.559 3.649A1.669 1.669 0 010 2.4V1c0-.551.449-1 1-1h14c.551 0 1 .449 1 1v1.4c0 .48-.204.935-.56 1.25l-5.104 4.535a1 1 0 00-.336.747v4.357c0 .348-.185.677-.485.857l-3.011 1.806a.326.326 0 01-.17.048zM1 .667A.334.334 0 00.667 1v1.4A1 1 0 001 3.15l5.106 4.536c.355.316.56.77.56 1.246v6.146l2.505-1.503c.1-.06.161-.17.161-.286V8.933c0-.476.205-.931.56-1.246L15 3.15c.212-.188.334-.462.334-.751V1A.334.334 0 0015 .667H1z"/></svg><svg viewBox="0 0 33 32" id="ic_fire" xmlns="http://www.w3.org/2000/svg"><g clip-path="url(#la)"><path d="M28.432 18.735c-.367-4.772-2.589-7.763-4.55-10.402C22.069 5.89 20.5 3.78 20.5.668a.668.668 0 00-1.055-.543c-2.944 2.107-5.4 5.658-6.258 9.045-.596 2.359-.675 5.01-.686 6.762-2.718-.581-3.334-4.648-3.34-4.692a.664.664 0 00-.951-.506c-.144.07-3.5 1.775-3.696 8.585-.013.226-.014.454-.014.68 0 6.617 5.383 12 12 12 .01 0 .019.002.027 0h.008c6.6-.019 11.965-5.395 11.965-12 0-.332-.068-1.264-.068-1.264zM16.5 30.665c-2.206 0-4-1.91-4-4.26 0-.08 0-.16.005-.26.027-.99.215-1.667.421-2.117.387.83 1.079 1.595 2.202 1.595a.666.666 0 00.666-.667c0-.95.02-2.044.256-3.032.21-.877.713-1.809 1.35-2.556.283.97.835 1.755 1.374 2.521.772 1.096 1.57 2.23 1.71 4.163.008.114.016.23.016.353 0 2.35-1.794 4.26-4 4.26z"/></g><defs><clipPath id="la"><path transform="translate(.5)" d="M0 0h32v32H0z"/></clipPath></defs></svg><svg viewBox="0 0 20 20" id="ic_inst" xmlns="http://www.w3.org/2000/svg"><path d="M10.004.008c-2.718 0-3.06.012-4.127.058-1.062.05-1.792.221-2.426.467A4.902 4.902 0 001.68 1.687a4.9 4.9 0 00-1.155 1.77C.275 4.092.108 4.82.058 5.884.013 6.95 0 7.291 0 10.008c0 2.709.013 3.054.058 4.117.05 1.066.221 1.792.467 2.43a4.9 4.9 0 001.155 1.77c.5.509 1.104.903 1.771 1.154.634.246 1.364.417 2.426.463 1.068.05 1.41.058 4.127.058 2.71 0 3.056-.008 4.119-.058 1.067-.05 1.792-.217 2.43-.463a4.905 4.905 0 001.771-1.154 4.9 4.9 0 001.155-1.77c.246-.638.417-1.364.463-2.43.05-1.063.058-1.404.058-4.121 0-2.713-.008-3.054-.058-4.121-.05-1.063-.217-1.792-.463-2.425a4.9 4.9 0 00-1.155-1.771A4.902 4.902 0 0016.553.533c-.638-.25-1.363-.417-2.43-.467a70.976 70.976 0 00-4.119-.058zm0 1.8c2.668 0 2.985.012 4.04.058.975.046 1.5.209 1.854.346.467.18.8.396 1.15.75.333.321.59.713.751 1.146.134.354.3.883.342 1.858.05 1.055.058 1.371.058 4.042 0 2.667-.008 2.984-.058 4.038-.042.975-.208 1.5-.342 1.854-.16.434-.417.828-.75 1.15-.323.333-.716.59-1.15.75-.35.133-.88.3-1.856.342-1.054.05-1.375.058-4.043.058s-2.985-.008-4.043-.058c-.972-.042-1.501-.209-1.855-.342a3.095 3.095 0 01-1.15-.75A3.095 3.095 0 012.2 15.9c-.133-.35-.296-.88-.342-1.854a69.354 69.354 0 01-.058-4.042c0-2.667.012-2.983.058-4.042.046-.97.209-1.5.346-1.854a3.08 3.08 0 01.75-1.15 3.097 3.097 0 011.147-.75c.354-.133.883-.296 1.859-.342 1.054-.046 1.371-.058 4.043-.058zm0 3.062a5.137 5.137 0 00-5.135 5.134 5.132 5.132 0 005.135 5.133 5.137 5.137 0 005.136-5.133 5.132 5.132 0 00-5.136-5.134zm0 8.471a3.336 3.336 0 01-3.335-3.333 3.333 3.333 0 013.335-3.333 3.335 3.335 0 013.335 3.333 3.333 3.333 0 01-3.335 3.334zm6.536-8.666a1.2 1.2 0 10-2.4 0 1.2 1.2 0 002.4 0z"/></svg><svg viewBox="0 0 20 20" id="ic_location" xmlns="http://www.w3.org/2000/svg"><path d="M10.02 3.906c-1.476-.01-2.685 1.206-2.696 2.714-.011 1.508 1.18 2.744 2.656 2.755H10c1.467 0 2.665-1.213 2.676-2.714.011-1.507-1.18-2.743-2.656-2.755zM10 8.594h-.014C8.93 8.586 8.08 7.703 8.088 6.626c.008-1.072.864-1.939 1.912-1.939h.014c1.055.009 1.906.891 1.898 1.968-.008 1.072-.864 1.939-1.912 1.939z"/><path d="M12.346 14.705c2.543-3.345 4.132-5.088 4.154-8.014C16.527 3.009 13.602 0 10 0 6.437 0 3.526 2.946 3.5 6.591c-.022 3.005 1.597 4.747 4.158 8.113-2.548.39-4.158 1.366-4.158 2.562 0 .8.725 1.519 2.04 2.023C6.737 19.747 8.321 20 10 20c1.679 0 3.263-.253 4.46-.711 1.315-.504 2.04-1.223 2.04-2.023 0-1.195-1.609-2.172-4.154-2.561zM4.265 6.597C4.289 3.38 6.857.78 9.999.78c3.18 0 5.76 2.656 5.736 5.904-.02 2.778-1.706 4.49-4.396 8.075-.48.638-.921 1.243-1.338 1.833a73.87 73.87 0 00-1.336-1.834c-2.802-3.734-4.42-5.316-4.4-8.162zM10 19.219c-3.282 0-5.735-1.031-5.735-1.953 0-.684 1.466-1.548 3.931-1.847a69.5 69.5 0 011.492 2.072.38.38 0 00.312.165.38.38 0 00.312-.164c.464-.67.955-1.35 1.495-2.073 2.463.3 3.928 1.163 3.928 1.847 0 .922-2.452 1.953-5.735 1.953z"/></svg><svg viewBox="0 0 42 42" id="ic_pepperoni" xmlns="http://www.w3.org/2000/svg"><path d="M21 1C9.972 1 1 9.972 1 21s8.972 20 20 20 20-8.972 20-20S32.028 1 21 1zm0 36.364c-9.023 0-16.364-7.341-16.364-16.364S11.977 4.636 21 4.636 37.364 11.977 37.364 21 30.023 37.364 21 37.364z"/><path d="M17.572 26.755a1.819 1.819 0 00-3.033 2.006l.502.758a1.818 1.818 0 003.033-2.006l-.502-.758zM14.81 16.096l.449-.79a1.818 1.818 0 00-3.162-1.797l-.449.79a1.818 1.818 0 103.161 1.797zm12.496 12.121l-.9-.119a1.817 1.817 0 10-.475 3.605l.901.12a1.817 1.817 0 10.474-3.606zm2.219-14.133a1.817 1.817 0 10-3.507.96l.24.877a1.818 1.818 0 003.507-.96l-.24-.877zm-7.224 4.204a1.818 1.818 0 10-2.622 2.518l.63.656a1.818 1.818 0 102.622-2.518l-.63-.656z"/></svg><svg viewBox="0 0 20 20" id="ic_phone" xmlns="http://www.w3.org/2000/svg"><path d="M4.053 13.295a21.287 21.287 0 007.084 5.528c1.036.49 2.421 1.07 3.965 1.169.095.004.187.008.283.008 1.035 0 1.867-.356 2.545-1.09a.069.069 0 00.017-.02c.241-.29.516-.552.803-.83.195-.186.395-.38.587-.58.886-.92.886-2.088-.009-2.98l-2.5-2.49c-.424-.44-.932-.671-1.464-.671-.533 0-1.044.232-1.481.667l-1.49 1.483a7.927 7.927 0 00-.411-.215 5.165 5.165 0 01-.458-.249c-1.356-.858-2.587-1.976-3.765-3.415-.594-.75-.994-1.38-1.273-2.022.392-.352.758-.721 1.111-1.082.125-.128.254-.257.383-.385.45-.448.69-.966.69-1.492s-.237-1.044-.69-1.492L6.74 1.902c-.145-.145-.283-.286-.424-.43A22.774 22.774 0 005.47.637C5.043.22 4.54 0 4.007 0c-.528 0-1.036.22-1.48.642L.97 2.192a3.18 3.18 0 00-.952 2.04c-.08.99.104 2.042.578 3.315.728 1.968 1.826 3.796 3.457 5.748zm-3.02-8.977c.05-.55.262-1.01.661-1.409l1.548-1.541c.241-.232.507-.353.765-.353.254 0 .512.12.749.36.279.258.54.527.824.813.141.145.287.29.432.44l1.24 1.234c.258.257.39.518.39.775s-.132.518-.39.775c-.13.129-.258.261-.387.39-.387.39-.749.758-1.148 1.11l-.02.021c-.346.344-.292.672-.209.92.004.013.008.021.013.033.32.767.765 1.497 1.46 2.367 1.248 1.533 2.562 2.723 4.01 3.638.179.117.37.208.549.299.166.083.32.161.458.248l.045.025a.88.88 0 00.404.104c.333 0 .549-.211.62-.282l1.555-1.55c.242-.24.504-.369.762-.369.316 0 .574.195.736.37l2.508 2.494c.5.497.495 1.036-.012 1.562-.175.187-.358.365-.553.552-.291.281-.595.572-.87.899-.478.514-1.048.754-1.784.754-.071 0-.146-.004-.217-.008-1.364-.087-2.633-.618-3.586-1.07a20.222 20.222 0 01-6.743-5.263c-1.551-1.86-2.595-3.593-3.286-5.45-.429-1.139-.59-2.055-.524-2.888z"/></svg><svg viewBox="0 0 33 32" id="ic_pizza" xmlns="http://www.w3.org/2000/svg"><g clip-path="url(#qa)"><path d="M26.655 23.005a2.887 2.887 0 01-.834 2.325 2.883 2.883 0 01-2.323.835 1.693 1.693 0 00-1.702.984 2.885 2.885 0 01-1.884 1.596 2.88 2.88 0 01-2.429-.44 1.728 1.728 0 00-.383-.2V32c5.447-.202 10.204-3.141 12.94-7.482l-3.366-1.945a1.684 1.684 0 00-.019.432zm-12.815 5.84a2.9 2.9 0 01-2.636-1.696 1.695 1.695 0 00-1.702-.984 2.884 2.884 0 01-2.323-.835 2.887 2.887 0 01-.834-2.325 1.687 1.687 0 00-.019-.432l-3.365 1.945c2.735 4.34 7.492 7.28 12.939 7.482v-3.894a1.68 1.68 0 00-.383.2 2.881 2.881 0 01-1.677.539zm-.441-24.43c-.49.131-.892.472-1.102.934a2.897 2.897 0 01-2.91 1.682 1.692 1.692 0 00-1.848 1.848c.04.405-.015.8-.135 1.17L15.9 14.96V5.14a2.879 2.879 0 01-1.08-.468 1.687 1.687 0 00-1.421-.257zm.168 6.5a1.892 1.892 0 01-2.587-.694 1.896 1.896 0 01.693-2.589 1.893 1.893 0 012.587.694 1.896 1.896 0 01-.693 2.59zM5.362 21.3a2.884 2.884 0 01-1.595-1.884 2.887 2.887 0 01.44-2.432 1.698 1.698 0 000-1.968 2.888 2.888 0 01-.44-2.431A2.885 2.885 0 015.362 10.7a1.67 1.67 0 00.364-.232L2.358 8.52A15.924 15.924 0 00.5 16.001c0 2.7.674 5.244 1.858 7.478l3.368-1.946c-.11-.09-.23-.171-.364-.233zm14.55-18.045a2.884 2.884 0 011.884 1.596 1.691 1.691 0 001.702.984 2.883 2.883 0 012.323.835c.614.614.917 1.461.834 2.325-.014.147-.004.291.019.432l3.365-1.945C27.304 3.142 22.547.202 17.1 0v3.894c.133-.05.263-.114.383-.2a2.878 2.878 0 012.429-.44z"/><path d="M4.926 19.104c.131.49.471.893.933 1.103.37.169.684.413.945.703L15.3 16l-8.496-4.91c-.26.29-.575.534-.945.702a1.688 1.688 0 00-.933 1.104 1.689 1.689 0 00.257 1.422 2.897 2.897 0 010 3.364 1.69 1.69 0 00-.257 1.422zm3.814-5a1.894 1.894 0 11-.001 3.79 1.894 1.894 0 01.001-3.79zM2.96 7.482l3.366 1.945a1.68 1.68 0 00.019-.432 2.887 2.887 0 01.834-2.325 2.882 2.882 0 012.323-.835 1.694 1.694 0 001.702-.984 2.885 2.885 0 011.884-1.596 2.88 2.88 0 012.429.44c.12.085.25.149.383.2V0C10.453.202 5.696 3.141 2.96 7.482zm27.682 1.039l-3.368 1.947c.11.09.23.17.364.232.79.36 1.37 1.046 1.595 1.885a2.887 2.887 0 01-.44 2.431 1.698 1.698 0 000 1.968c.505.707.665 1.593.44 2.432a2.885 2.885 0 01-1.595 1.885 1.681 1.681 0 00-.364.232l3.368 1.946A15.925 15.925 0 0032.5 16c0-2.7-.674-5.245-1.858-7.479zM7.54 23.12a1.695 1.695 0 001.847 1.85 2.888 2.888 0 012.91 1.68c.21.463.612.804 1.102.935.49.131 1.008.038 1.42-.257.331-.236.7-.387 1.081-.468v-9.82l-8.496 4.91c.12.37.174.766.135 1.17zm3.44-1.341a1.892 1.892 0 012.587-.694 1.896 1.896 0 01.693 2.589 1.893 1.893 0 01-2.587.694 1.896 1.896 0 01-.693-2.59zm8.621 5.806c.49-.131.892-.472 1.102-.934a2.9 2.9 0 012.91-1.682 1.694 1.694 0 001.848-1.849c-.04-.404.015-.8.135-1.17L17.1 17.04v9.82c.38.081.75.232 1.08.468.413.295.932.389 1.421.257zm-.168-6.5a1.893 1.893 0 012.587.694 1.896 1.896 0 01-.694 2.589 1.893 1.893 0 01-2.586-.694 1.896 1.896 0 01.693-2.59z"/><path d="M28.074 12.896a1.687 1.687 0 00-.933-1.103 2.876 2.876 0 01-.945-.703L17.7 16l8.496 4.91c.26-.29.575-.534.945-.703.462-.21.802-.612.933-1.103a1.689 1.689 0 00-.257-1.422 2.897 2.897 0 010-3.364c.295-.413.388-.932.257-1.422zm-3.815 5a1.894 1.894 0 11.002-3.79 1.894 1.894 0 01-.002 3.79zM25.46 8.88a1.692 1.692 0 00-1.847-1.85 2.89 2.89 0 01-2.91-1.68 1.689 1.689 0 00-2.523-.678c-.33.236-.7.387-1.08.468v9.82l8.496-4.91a2.88 2.88 0 01-.136-1.17zm-3.44 1.341a1.893 1.893 0 01-2.587.694 1.896 1.896 0 01-.693-2.589 1.893 1.893 0 012.587-.694 1.896 1.896 0 01.693 2.59z"/></g><defs><clipPath id="qa"><path transform="translate(.5)" d="M0 0h32v32H0z"/></clipPath></defs></svg><svg viewBox="0 0 32 32" id="ic_pizza-logo" xmlns="http://www.w3.org/2000/svg"><path d="M31.814.18a.625.625 0 00-.649-.144L5.205 9.292A3.417 3.417 0 00.26 13.513a33.513 33.513 0 007.3 10.926 33.513 33.513 0 0010.927 7.3 3.424 3.424 0 004.467-1.85 3.409 3.409 0 00-.019-2.655L31.966.827a.625.625 0 00-.152-.647zM9.136 9.218l2.751-.98a1.59 1.59 0 01-.192 2.352 1.582 1.582 0 01-1.178.316 1.583 1.583 0 01-1.056-.61 1.581 1.581 0 01-.325-1.078zM21.8 29.411a2.171 2.171 0 01-2.834 1.174c-8.002-3.315-14.235-9.548-17.55-17.55a2.155 2.155 0 010-1.66A2.155 2.155 0 012.59 10.2a2.155 2.155 0 011.66 0c.535.222.952.639 1.173 1.174a27.95 27.95 0 006.09 9.113 27.952 27.952 0 009.113 6.09A2.171 2.171 0 0121.8 29.41zm5.552-18.953a1.582 1.582 0 01-1.226-.622 1.595 1.595 0 011.472-2.55c.27.037.522.14.737.3l-.983 2.872zM28.75 6.37a2.842 2.842 0 00-3.615 4.227 2.82 2.82 0 001.802 1.075l-1.242 3.633-1.429-1.096a.625.625 0 00-.76.991l1.762 1.353L22.037 26a3.405 3.405 0 00-.933-.577C14.48 22.679 9.32 17.52 6.578 10.897a3.419 3.419 0 00-.351-.642l1.674-.596c.058.504.252.985.569 1.398a2.824 2.824 0 002.261 1.113c.622 0 1.223-.203 1.725-.588a2.838 2.838 0 00.665-3.785l7.77-2.77.294.711a.625.625 0 001.155-.478l-.27-.653 8.294-2.958L28.75 6.37z"/><path d="M6.75 16.767zm-.95-1.553a29.582 29.582 0 01-1.628-3.321.625.625 0 10-1.155.478 30.818 30.818 0 001.697 3.463.625.625 0 101.085-.62zM19.558 8a2.85 2.85 0 00-3.19 2.448 2.846 2.846 0 002.822 3.213 2.85 2.85 0 002.816-2.472 2.846 2.846 0 00-2.448-3.19zm1.209 3.026a1.596 1.596 0 01-1.788 1.371 1.595 1.595 0 01-1.371-1.787 1.596 1.596 0 011.787-1.371c.87.114 1.486.916 1.372 1.787zm-1.371 4.747a2.85 2.85 0 00-3.19 2.448c-.1.753.1 1.5.563 2.102a2.825 2.825 0 002.258 1.112 2.85 2.85 0 002.816-2.472 2.846 2.846 0 00-2.447-3.19zm1.208 3.027a1.596 1.596 0 01-1.787 1.371 1.583 1.583 0 01-1.056-.61 1.583 1.583 0 01-.316-1.177 1.596 1.596 0 011.787-1.372 1.596 1.596 0 011.372 1.788zm-5.331-5.616l-1.92-.253a.625.625 0 10-.164 1.24l1.921.253a.625.625 0 00.163-1.24zm-.973 4.612l-.17-1.289a.625.625 0 10-1.24.163l.17 1.29a.625.625 0 101.24-.164z"/></svg><svg viewBox="0 0 33 32" id="ic_sauce" xmlns="http://www.w3.org/2000/svg"><g clip-path="url(#sa)"><path d="M32.48 10.421A4.476 4.476 0 0028.015 6c-2.182 0-4.003 1.58-4.39 3.658-.767.341-2.1.886-2.894 1.018-.957.16-2.114.208-3.44.143-2.53-.125-5.056-.952-7.305-2.392-2.83-1.811-5.24-2.235-7.815-1.374A2.461 2.461 0 00.5 9.399c0 .347.188.666.49.832.344.189.667.353.979.51 1.69.857 2.621 1.329 3.238 3.929.461 1.94 1.268 3.568 2.397 4.836a8.956 8.956 0 001.613 1.42h12.83c1.938-1.46 3.125-3.675 3.451-6.468a14.55 14.55 0 00-.084-3.859.937.937 0 00.009-.118 2.593 2.593 0 015.183 0c0 .045.003.09.01.135 0 .01.104.948-.474 1.622-.474.552-1.31.832-2.488.832a.942.942 0 00-.937.946c0 .523.42.947.937.947 1.746 0 3.06-.5 3.905-1.486 1.038-1.209.961-2.678.922-3.056zM9.222 22.82c-.053.203-.08.417-.08.637v1.596c0 .523.42.947.937.947h11.165a.942.942 0 00.938-.947v-1.596c0-.22-.028-.434-.08-.638H9.222z"/></g><defs><clipPath id="sa"><path transform="translate(.5)" d="M0 0h32v32H0z"/></clipPath></defs></svg><svg viewBox="0 0 24 22" id="ic_shoping-cart" xmlns="http://www.w3.org/2000/svg"><path d="M7.781 14.5h12.704a.7.7 0 00.675-.508l2.813-9.8a.697.697 0 00-.676-.892H6.158l-.503-2.252A.702.702 0 004.97.5H.703a.701.701 0 100 1.4h3.701l2.54 11.375A2.101 2.101 0 005.672 15.2c0 1.158.946 2.1 2.11 2.1h12.703a.701.701 0 100-1.4H7.78a.702.702 0 01-.703-.7c0-.386.316-.7.703-.7z"/><path d="M7.078 19.4c0 1.158.946 2.1 2.11 2.1 1.163 0 2.11-.942 2.11-2.1 0-1.158-.947-2.1-2.11-2.1-1.164 0-2.11.942-2.11 2.1zm9.891 0c0 1.158.946 2.1 2.11 2.1a2.107 2.107 0 002.109-2.1c0-1.158-.947-2.1-2.11-2.1-1.163 0-2.11.942-2.11 2.1z"/></svg><svg viewBox="0 0 33 32" id="ic_snacks" xmlns="http://www.w3.org/2000/svg"><path d="M9.565 0c-.295 0-.516.238-.533.533v8.095c.536.194.952.666 1.046 1.251.003.02.216 1.214 1.087 2.471V.533A.532.532 0 0010.632 0H9.565zm12.8 0c-.295 0-.516.238-.533.533v11.812c.876-1.267 1.09-2.476 1.09-2.476a1.61 1.61 0 011.043-1.24V.532A.532.532 0 0023.432 0h-1.067zm-9.6 2.133a.532.532 0 00-.533.534V13.55a5.268 5.268 0 002.133 1.122V2.667a.532.532 0 00-.533-.534h-1.067zm6.4 0a.532.532 0 00-.533.534v12.006a5.264 5.264 0 002.133-1.124V2.667a.532.532 0 00-.533-.534h-1.067zm-12.8 2.134a.532.532 0 00-.533.533v3.732h2.133V4.8a.532.532 0 00-.533-.533H6.365zm9.6 0a.532.532 0 00-.533.533v10.075c.33.037.685.058 1.065.058.382 0 .736-.02 1.068-.058V4.8a.532.532 0 00-.533-.533h-1.067zm9.6 0a.532.532 0 00-.533.533v3.732h2.133V4.8a.532.532 0 00-.533-.533h-1.067zM3.698 9.599a.533.533 0 00-.527.602l2.666 20.264C5.93 31.258 6.55 32 7.43 32h18.134c.877 0 1.497-.74 1.594-1.531l2.67-20.268a.533.533 0 00-.532-.602h-4.799a.533.533 0 00-.524.449s-.252 1.48-1.311 2.976C21.603 14.519 19.8 16 16.498 16c-3.302 0-5.106-1.48-6.165-2.976-1.06-1.495-1.308-2.976-1.308-2.976a.533.533 0 00-.527-.449h-4.8zm12.8 10.135a4.272 4.272 0 014.267 4.264 4.276 4.276 0 01-4.267 4.268 4.277 4.277 0 01-4.268-4.268 4.274 4.274 0 014.268-4.264z"/></svg><svg viewBox="0 0 16 14" id="ic_submit" xmlns="http://www.w3.org/2000/svg"><path d="M15.047 5.594L2.137.317A1.555 1.555 0 00.536.573 1.5 1.5 0 00.05 2.099l1.149 4.44h5.626c.258 0 .468.206.468.461s-.21.462-.468.462H1.198L.048 11.9a1.5 1.5 0 00.487 1.526c.446.38 1.06.477 1.603.255l12.91-5.276A1.5 1.5 0 0016 6.999c0-.627-.365-1.166-.953-1.406z"/></svg><svg viewBox="0 0 33 32" id="ic_sushi" xmlns="http://www.w3.org/2000/svg"><g clip-path="url(#wa)"><path d="M19.96 19.382c-4.257 0-8.267.626-11.6 1.81a7.578 7.578 0 01-2.544.44 7.5 7.5 0 01-3.047-.647A6.79 6.79 0 009.319 26h15.492a6.79 6.79 0 006.574-5.104 3.314 3.314 0 01-.893-.125c-3.212-.909-6.855-1.39-10.533-1.39zm-9.419-1.13a36.725 36.725 0 014.146-.752c-2.782-3.04-3.041-8.159-.503-11.5a22.225 22.225 0 00-5.896.974 6.831 6.831 0 00-1.928 3.377c-.813 3.207 1.083 6.767 4.181 7.901z"/><path d="M7.604 19.122c-2.782-2.081-4.231-5.678-3.395-9.27a8.97 8.97 0 01.42-1.322 16.43 16.43 0 00-2.078 1.372C-1.458 13 .825 19.442 5.816 19.43c.594 0 1.198-.1 1.788-.308zm18.842-9.896a4.86 4.86 0 00-2.235 2.247 4.849 4.849 0 00.466 5.014c.164.222.77.89.826 1.042 1.924.245 3.807.618 5.592 1.123.37.105.77.01 1.053-.253a1.1 1.1 0 00.33-1.03c-.675-3.26-2.888-6.11-6.032-8.143zm-8.756 8.012a44.341 44.341 0 014.848.017 7.04 7.04 0 01-.314-6.74 7.06 7.06 0 012.026-2.503c-2.139-1.004-4.572-1.674-7.164-1.92-3.509 2.89-3.18 8.677.604 11.146z"/></g><defs><clipPath id="wa"><path transform="translate(.5)" d="M0 0h32v32H0z"/></clipPath></defs></svg><svg viewBox="0 0 20 20" id="ic_user" xmlns="http://www.w3.org/2000/svg"><path fill-rule="evenodd" clip-rule="evenodd" d="M10 0a4.797 4.797 0 00-4.792 4.792A4.797 4.797 0 0010 9.583a4.797 4.797 0 004.792-4.791A4.797 4.797 0 0010 0zM6.276 4.792A3.728 3.728 0 0110 1.067a3.728 3.728 0 013.725 3.725A3.728 3.728 0 0110 8.516a3.728 3.728 0 01-3.724-3.724zm-.312 6.874c-2.37 0-4.297 1.98-4.297 4.41v3.412c0 .282.223.512.498.512h15.67c.275 0 .498-.23.498-.512v-3.411c0-2.432-1.928-4.41-4.297-4.41H5.964zm-3.3 4.41c0-1.867 1.48-3.386 3.3-3.386h8.072c1.82 0 3.3 1.52 3.3 3.387v2.9H2.664v-2.9z"/></svg></svg>